# ProBuilder 5.0.3
# https://unity3d.com/unity/features/worldbuilding/probuilder
# 5/24/2023 3:22:44 PM

mtllib ./finish.mtl
o finish

g Cube
v 0.0434972 5.960464E-08 0
v -0.6796372 5.960464E-08 0
v 0.0434972 0.0577502 0
v -0.6796372 0.0577502 0
v -0.6796372 5.960464E-08 -0.4224702
v -0.6796372 0.0577502 -0.4224702
v 0.0434972 5.960464E-08 -0.4224702
v 0.0434972 0.0577502 -0.4224702

vt 0.0434972 5.960464E-08
vt -0.6796372 5.960464E-08
vt 0.0434972 0.0577502
vt -0.6796372 0.0577502
vt 0 5.960464E-08
vt -0.4224702 5.960464E-08
vt 0 0.0577502
vt -0.4224702 0.0577502
vt 0.6796372 5.960464E-08
vt -0.0434972 5.960464E-08
vt 0.6796372 0.0577502
vt -0.0434972 0.0577502
vt 0.4224702 5.960464E-08
vt 0.4224702 0.0577502
vt -0.0434972 -0.4224702
vt 0.6796372 -0.4224702
vt 0.0434972 -0.4224702
vt -0.6796372 -0.4224702

vn 0 0 1
vn -1 0 0
vn 0 0 -1
vn 1 0 0
vn 0 1 0
vn 0 -1 0

usemtl ProBuilderDefault
f 3/3/1 4/4/1 2/2/1 1/1/1
f 4/7/2 6/8/2 5/6/2 2/5/2
f 6/11/3 8/12/3 7/10/3 5/9/3
f 8/14/4 3/7/4 1/5/4 7/13/4
f 8/15/5 6/16/5 4/9/5 3/10/5
f 1/1/6 2/2/6 5/18/6 7/17/6

