# ProBuilder 5.0.3
# https://unity3d.com/unity/features/worldbuilding/probuilder
# 5/22/2023 2:18:53 PM

mtllib ./RoadTurnLargePathpoint_(2).mtl
o RoadTurnLargePathpoint (2)

g RoadTurnLargePathpoint (2)
v 0.5782129 0.600016 -4.92279
v 0.1959715 0.4850866 -5.178196
v 0.8710668 0.485056 -6.26407
v 1.268212 0.6 -6.032521
v -0.181766 0.6000159 -3.862246
v -0.5464846 0.4850865 -4.142105
v -1.009483 0.600016 -2.853669
v -1.355118 0.4850866 -3.156782
v -1.901391 0.600016 -1.901391
v -2.226461 0.4850865 -2.22646
v -2.853668 0.600016 -1.00948
v -3.156781 0.4850866 -1.355114
v -3.862242 0.600016 -0.1817699
v -4.142101 0.4850865 -0.5464886
v -4.922793 0.6 0.5782144
v -5.178199 0.4850866 0.1959713
v -6.032521 0.6 1.268208
v -6.26407 0.485056 0.8710629
v 4.00645 0.6 -2.632116
v 4.836909 0.6 -3.967479
v 3.089314 0.6 -1.352258
v 2.090434 0.600016 -0.1351158
v 1.014086 0.600016 1.014086
v -0.135114 0.600016 2.090436
v -1.352253 0.600016 3.089311
v -2.632118 0.600016 4.006452
v -3.967479 0.6 4.836905
v 5.234054 0.485056 -3.73593
v 4.388693 0.4850865 -2.376709
v 3.454034 0.4850865 -1.072399
v 2.436068 0.4850866 0.1679972
v 1.339156 0.4850865 1.339156
v 0.1679991 0.4850866 2.43607
v -1.072395 0.4850865 3.45403
v -2.376713 0.4850866 4.388693
v -3.73593 0.485056 5.234051
v 4.784611 0.1 -4
v 5.131021 5.960461E-09 -3.8
v 0.2968051 5.960462E-09 -5.110821
v 0.9740996 5.960462E-09 -6.2
v 1.32051 0.1 -6
v -0.4502735 5.960462E-09 -4.068279
v 1.253404 5.960461E-09 1.253404
v 0.08803918 5.960461E-09 2.344893
v 4.28786 5.960461E-09 -2.444084
v 3.357823 5.960461E-09 -1.146224
v 2.344891 5.960461E-09 0.08803716
v -1.14622 5.960461E-09 3.357819
v -2.444088 5.960461E-09 4.287859
v -3.8 5.960461E-09 5.131018
v -4 0.1 4.784607
v -6 0.1 1.320506
v -6.2 5.960462E-09 0.9740958
v -4.068275 5.960462E-09 -0.4502773
v -3.076821 5.960462E-09 -1.263937
v -5.110825 5.960462E-09 0.296805
v -2.140709 5.960462E-09 -2.140709
v -1.263941 5.960462E-09 -3.076822

vt -0.6902643 -4.822394
vt -0.2924851 -5.079923
vt -0.9528407 -6.174823
vt -1.365201 -5.94135
vt 0.05857227 -3.735245
vt 0.4388773 -4.017942
vt -0.2886927 -5.06454
vt -0.6861691 -4.806544
vt 0.8772188 -2.699465
vt 1.238386 -3.006235
vt 0.444458 -4.003444
vt 0.06455357 -3.720209
vt 1.762715 -1.720493
vt 2.10314 -2.050129
vt 1.245965 -2.99352
vt 0.8853096 -2.686149
vt 2.711715 -0.8035923
vt 3.029862 -1.154778
vt 2.112851 -2.04012
vt 1.773061 -1.709829
vt 3.72048 0.0461556
vt 4.014892 -0.3251539
vt 3.041749 -1.148392
vt 2.724369 -0.7965121
vt 4.784882 0.8239065
vt 5.054185 0.4340057
vt 4.028909 -0.3233283
vt 3.735406 0.04870022
vt 5.902005 1.526348
vt 6.146611 1.120492
vt 5.070087 0.4305944
vt 4.801833 0.8212177
vt -4.006444 -2.632111
vt -0.5782068 -4.922785
vt -1.268206 -6.032516
vt -4.836903 -3.967474
vt -3.089312 -1.35226
vt 0.1817679 -3.862247
vt -2.090434 -0.1351158
vt 1.009483 -2.853669
vt -1.014086 1.014086
vt 1.901391 -1.901391
vt 0.135114 2.090436
vt 2.853668 -1.00948
vt 1.352253 3.089311
vt 3.862242 -0.1817699
vt 2.632111 4.006449
vt 4.922785 0.5782122
vt 3.967479 4.836905
vt 6.032521 1.268208
vt -5.019087 -3.905247
vt -4.192164 -2.534732
vt -3.794387 -2.792261
vt -4.606728 -4.138722
vt -4.204087 -2.543595
vt -3.288162 -1.226061
vt -2.907861 -1.508758
vt -3.806613 -2.801591
vt -3.299134 -1.233873
vt -2.299679 0.0214864
vt -1.938512 -0.2852832
vt -2.919231 -1.517107
vt -2.30934 0.01393896
vt -1.230263 1.201551
vt -0.8898379 0.8719144
vt -1.948684 -0.2934323
vt -1.23824 1.193329
vt -0.08383738 2.307862
vt 0.2343101 1.956676
vt -0.89845 0.8630378
vt -0.08989943 2.298023
vt 1.135167 3.334379
vt 1.429579 2.96307
vt 0.22748 1.946143
vt 1.131128 3.32199
vt 2.421819 4.275383
vt 2.691126 3.885482
vt 1.424633 2.949963
vt 2.419769 4.259539
vt 3.767278 5.123437
vt 4.011885 4.717581
vt 2.688025 3.868914
vt -2.13787 0.07709473
vt -2.53787 -0.02290604
vt -2.199424 0.5770985
vt -2.659138 0.4621613
vt -4.496854 0.5931401
vt -5.779445 0.5931401
vt -4.500823 1.09314
vt -5.779445 1.09314
vt 2.267676 0.04507416
vt 1.867676 0.1450771
vt 2.388947 0.5301445
vt 1.929232 0.6450769
vt 1.856406 0.1235984
vt -2.143595 0.1235984
vt 1.917957 0.6236024
vt -2.205146 0.6235862
vt -3.044606 0.6631679
vt -4.327189 0.6631679
vt -3.048574 1.163168
vt -4.323222 1.163168
vt 0.05799225 0.4294671
vt -1.538699 0.4294671
vt 0.06195989 0.9294671
vt -1.542667 0.9294671
vt 5.936495 0.5703951
vt 4.339802 0.5703951
vt 5.936495 1.070395
vt 4.335834 1.070395
vt 3.016223 0.4529437
vt 1.419529 0.4529437
vt 3.020191 0.9529436
vt 1.415561 0.9529437
vt 4.484253 0.4997925
vt 2.887565 0.4997925
vt 4.488221 0.9997924
vt 2.883598 0.9997925
vt 1.538696 0.4294671
vt -0.05799554 0.4294671
vt 1.542664 0.9294671
vt -0.06196323 0.9294671
vt -1.419525 0.4529448
vt -3.016213 0.4529448
vt -1.415556 0.9529448
vt -3.020181 0.9529448
vt -2.887558 0.4997932
vt -4.484253 0.4997932
vt -2.88359 0.9997931
vt -4.488221 0.9997932
vt -4.339803 0.5698227
vt -5.936491 0.5698227
vt -4.335835 1.069823
vt -5.936491 1.069823
vt 2.143591 0.07639831
vt -1.856409 0.07639831
vt 2.205143 0.5764023
vt -1.917961 0.5763861
vt 2.53231 -0.04514344
vt 2.132311 0.05485952
vt 2.653582 0.4399269
vt 2.193867 0.5548592
vt -1.862129 0.1228871
vt -2.262128 0.0228863
vt -1.923682 0.6228908
vt -2.383396 0.5079536
vt 2.859176 0.7100157
vt 1.576591 0.7100157
vt 2.855208 1.210016
vt 1.580559 1.210016
vt 5.779445 0.5937377
vt 4.49686 0.5937377
vt 5.779445 1.093738
vt 4.500827 1.093738
vt 4.327195 0.6631675
vt 3.044604 0.6631675
vt 4.323227 1.163167
vt 3.048572 1.163167
vt 1.381633 0.7334939
vt 0.09904373 0.7334939
vt 1.377664 1.233494
vt 0.1030114 1.233494
vt -0.09905024 0.7334934
vt -1.381637 0.7334934
vt -0.1030178 1.233493
vt -1.377669 1.233493
vt -1.576582 0.7100174
vt -2.859174 0.7100174
vt -1.58055 1.210017
vt -2.855206 1.210017

vn -0.2016608 0.9701425 -0.1347457
vn -0.2060656 0.970112 -0.1281398
vn -0.1924162 0.9701425 -0.1476465
vn -0.1823478 0.9701425 -0.1599149
vn -0.1714988 0.9701425 -0.1714985
vn -0.1599149 0.9701425 -0.1823479
vn -0.1476511 0.9701425 -0.1924129
vn -0.1347295 0.9701487 -0.2016419
vn -0.1281258 0.970116 -0.2060552
vn 4.112471E-06 1 -9.050997E-07
vn 0.2060492 0.970116 0.1281355
vn 0.2016337 0.9701506 0.1347275
vn 0.1923983 0.9701486 0.1476297
vn 0.1823479 0.9701425 0.1599149
vn 0.1714988 0.9701425 0.1714985
vn 0.1599149 0.9701425 0.1823479
vn 0.1476462 0.9701425 0.1924166
vn 0.1347455 0.9701425 0.2016609
vn 0.1281395 0.970112 0.2060656
vn 0.5008424 0.003909622 -0.8655297
vn 0.5029779 0.005305735 -0.8642783
vn 0.5051134 0.006701848 -0.8630269
vn -0.8238732 -0.2424135 -0.5123169
vn -0.8238733 -0.2425357 -0.512259
vn 0.5016515 -0.007702282 -0.8650355
vn 0.5030304 -0.00555189 -0.8642467
vn 0.5044093 -0.003401499 -0.863458
vn 0.499996 -0.004029635 -0.8660184
vn 0.5004193 -6.001117E-05 -0.865774
vn -0.7886006 -0.2424132 -0.5651061
vn 0.6632048 -0.2424133 0.7080926
vn 0.8238215 -0.2426574 0.5122847
vn 0.8238317 -0.2424137 0.5123837
vn 0.749954 -0.2424134 0.6154711
vn 0.7886009 -0.242413 0.5651058
vn 0.7080939 -0.2424133 0.6632035
vn 0.6154695 -0.2424133 0.7499555
vn 0.565105 -0.2424132 0.7886014
vn 0.5123163 -0.2424138 0.8238736
vn 0.5123335 -0.2425359 0.8238268
vn -0.8660184 0.004029929 0.499996
vn -0.865774 6.03057E-05 0.5004193
vn -0.8655297 -0.003909317 0.5008425
vn -0.8650354 0.007701963 0.5016518
vn -0.8642467 0.005551888 0.5030304
vn -0.8634581 0.003401814 0.5044091
vn -0.8642786 -0.005305486 0.5029775
vn -0.8630272 -0.006701591 0.5051131
vn -0.6154689 -0.2424133 -0.7499559
vn -0.5122839 -0.2426579 -0.8238218
vn -0.5122325 -0.2424125 -0.823926
vn -0.5651053 -0.2424132 -0.7886012
vn -0.6632053 -0.2424133 -0.7080922
vn -0.7080936 -0.2424132 -0.6632038
vn -0.7499543 -0.2424133 -0.6154708

usemtl ProBuilderDefault
f 4/4/2 3/3/2 2/2/1 1/1/1
f 1/8/1 2/7/1 6/6/3 5/5/3
f 5/12/3 6/11/3 8/10/4 7/9/4
f 7/16/4 8/15/4 10/14/5 9/13/5
f 9/20/5 10/19/5 12/18/6 11/17/6
f 11/24/6 12/23/6 14/22/7 13/21/7
f 13/28/7 14/27/7 16/26/8 15/25/8
f 15/32/8 16/31/8 18/30/9 17/29/9
f 20/36/10 4/35/10 1/34/10 19/33/10
f 19/33/10 1/34/10 5/38/10 21/37/10
f 21/37/10 5/38/10 7/40/10 22/39/10
f 22/39/10 7/40/10 9/42/10 23/41/10
f 23/41/10 9/42/10 11/44/10 24/43/10
f 24/43/10 11/44/10 13/46/10 25/45/10
f 25/45/10 13/46/10 15/48/10 26/47/10
f 26/47/10 15/48/10 17/50/10 27/49/10
f 20/54/11 19/53/12 29/52/12 28/51/11
f 19/58/12 21/57/13 30/56/13 29/55/12
f 21/62/13 22/61/14 31/60/14 30/59/13
f 22/66/14 23/65/15 32/64/15 31/63/14
f 23/70/15 24/69/16 33/68/16 32/67/15
f 24/74/16 25/73/17 34/72/17 33/71/16
f 25/78/17 26/77/18 35/76/18 34/75/17
f 26/82/18 27/81/19 36/80/19 35/79/18
f 20/85/21 28/86/22 38/84/21 37/83/20
f 2/89/24 3/90/24 40/88/24 39/87/23
f 3/93/26 4/94/27 41/92/26 40/91/25
f 4/97/29 20/98/20 37/96/29 41/95/28
f 6/101/30 2/102/30 39/100/30 42/99/30
f 32/105/31 33/106/31 44/104/31 43/103/31
f 28/109/32 29/110/33 45/108/32 38/107/32
f 30/113/34 31/114/34 47/112/34 46/111/34
f 29/117/35 30/118/35 46/116/35 45/115/35
f 31/121/36 32/122/36 43/120/36 47/119/36
f 33/125/37 34/126/37 48/124/37 44/123/37
f 34/129/38 35/130/38 49/128/38 48/127/38
f 35/133/40 36/134/40 50/132/40 49/131/39
f 27/137/42 17/138/43 52/136/42 51/135/41
f 36/141/45 27/142/46 51/140/45 50/139/44
f 17/145/47 18/146/48 53/144/47 52/143/43
f 14/149/49 12/150/49 55/148/49 54/147/49
f 18/153/50 16/154/51 56/152/50 53/151/50
f 16/157/52 14/158/52 54/156/52 56/155/52
f 12/161/53 10/162/53 57/160/53 55/159/53
f 10/165/54 8/166/54 58/164/54 57/163/54
f 8/169/55 6/170/55 42/168/55 58/167/55

