# ProBuilder 5.0.3
# https://unity3d.com/unity/features/worldbuilding/probuilder
# 5/22/2023 2:58:07 PM

mtllib ./RoadCurve(0).mtl
o RoadCurve(0)

g RoadCurve(0)
v 6.765765 1.10009 -8.730869
v 7.245539 0.9702292 -8.531772
v 6.421232 0.9700574 -6.814971
v 5.962697 1.1 -7.05907
v 7.38322 1.10009 -10.48677
v 7.881948 0.9702281 -10.34154
v 7.80735 1.100071 -12.29859
v 8.318537 0.9702169 -12.20637
v 8.047773 1.1 -14.14276
v 8.565405 0.9702016 -14.09942
v 8.123103 1.1 -15.99501
v 8.642524 0.9700955 -15.99016
v 3.816241 1.100063 -14.49556
v 3.298603 0.9701958 -14.53887
v 3.357452 0.9700902 -16.00977
v 3.876885 1.1 -16.00496
v 3.628357 1.100079 -13.05119
v 3.117155 0.9702117 -13.14338
v 3.306152 1.1 -11.67328
v 2.807405 0.9702258 -11.81849
v 2.843956 1.1 -10.35865
v 2.364178 0.9702314 -10.55776
v 2.233025 1.1 -9.088848
v 1.774506 0.9700613 -9.332965
v 5.851579 0.1 -7.112471
v 2.344124 0.1 -9.035428
v 7.021482 6.267524E-09 -8.624677
v 6.202324 6.267808E-09 -6.920176
v 1.993379 6.270447E-09 -9.227724
v 7.649118 6.267358E-09 -10.40952
v 2.588223 6.270241E-09 -10.46484
v 3.355821 6.270085E-09 -13.10007
v 3.540295 6.270132E-09 -14.51832
v 3.040255 6.270121E-09 -11.75055
v 3.6 6.270255E-09 -16
v 4 0.1 -16
v 8 0.1 -16
v 8.079904 6.267309E-09 -12.24975
v 8.4 6.267527E-09 -16
v 8.323742 6.26737E-09 -14.12004

vt -6.357642 -8.951999
vt -6.854234 -8.75179
vt -6.050185 -7.025409
vt -5.574293 -7.270869
vt -6.932617 -10.67569
vt -7.44784 -10.52999
vt -6.828475 -8.714312
vt -6.331697 -8.914059
vt -7.324799 -12.44122
vt -7.852197 -12.34886
vt -7.428022 -10.48117
vt -6.912728 -10.62662
vt -7.546238 -14.23008
vt -8.079893 -14.18672
vt -7.840282 -12.29273
vt -7.312869 -12.385
vt -7.613778 -16.02411
vt -8.149197 -16.01927
vt -8.074354 -14.12844
vt -7.540698 -14.17178
vt -3.969107 -14.49349
vt -3.435427 -14.5368
vt -3.492493 -16.00777
vt -4.027925 -16.00296
vt -3.786512 -13.03873
vt -3.25908 -13.13096
vt -3.435181 -14.52713
vt -3.968859 -14.4838
vt -3.472568 -11.63963
vt -2.957276 -11.78506
vt -3.258221 -13.11198
vt -3.785636 -13.01964
vt -3.020594 -10.29144
vt -2.523836 -10.4912
vt -2.955207 -11.75603
vt -3.470428 -11.61035
vt -2.420372 -8.977174
vt -1.944498 -9.222653
vt -2.519748 -10.45429
vt -3.016323 -10.25408
vt -8.047753 -14.14272
vt -3.816221 -14.49551
vt -3.876865 -16.00492
vt -8.123083 -15.99496
vt -7.807346 -12.29858
vt -3.628353 -13.05118
vt -7.38326 -10.48682
vt -3.306192 -11.67333
vt -6.765787 -8.730862
vt -2.843978 -10.35865
vt -5.962697 -7.05907
vt -2.233025 -9.088848
vt 1.711792 0.1596606
vt -2.288208 0.1596606
vt 1.8349 1.159682
vt -2.411308 1.159596
vt 10.81499 0.6279303
vt 8.923869 0.6279303
vt 10.82831 1.627931
vt 8.923869 1.62793
vt 2.140292 0.1139457
vt 1.740294 0.2139537
vt 2.38286 1.08408
vt 1.863422 1.213952
vt -2.273795 0.04231218
vt -2.673795 -0.05768985
vt -2.396906 1.042333
vt -2.91633 0.9124317
vt 12.35754 0.9113172
vt 10.46556 0.9113172
vt 12.37065 1.911317
vt 10.45224 1.911317
vt -9.180121 0.5348348
vt -10.55282 0.5348347
vt -9.180121 1.534835
vt -10.53947 1.534835
vt -13.42349 -0.3968421
vt -14.85369 -0.3968421
vt -13.43565 0.6031582
vt -14.84289 0.6031581
vt -12.13415 -0.06899318
vt -13.52007 -0.06899318
vt -12.14728 0.9310071
vt -13.5079 0.9310071
vt -10.73091 0.2492688
vt -12.09377 0.2492688
vt -10.74426 1.249269
vt -12.08063 1.249269
vt -14.64909 -0.7155487
vt -16.13197 -0.7155487
vt -14.65989 0.2844515
vt -16.13197 0.2844512
vt -3.562062 0.1517837
vt -3.962061 0.2517882
vt -3.319492 1.121917
vt -3.838935 1.251787
vt -4 0.179374
vt -8 0.179374
vt -3.876885 1.179386
vt -8.123103 1.179337
vt 13.76896 1.229388
vt 11.87898 1.229388
vt 13.78112 2.229388
vt 11.86587 2.229388
vt -7.980617 0.02244332
vt -8.380616 -0.07755786
vt -8.103726 1.022455
vt -8.623152 0.8925725
vt 16.32731 1.879801
vt 14.4458 1.879801
vt 16.32731 2.879801
vt 14.43499 2.879801
vt 15.07764 1.557612
vt 13.19152 1.557612
vt 15.08844 2.557612
vt 13.17936 2.557612

vn 0.224036 0.9701434 0.09289598
vn 0.2189029 0.9700587 0.105203
vn 0.2328211 0.9701418 0.0679652
vn 0.2386295 0.9701425 0.04335249
vn 0.2415821 0.9701614 0.02061193
vn 0.2424799 0.9701064 0.00984863
vn 0.2425241 0.9700955 0.009837581
vn -0.2416655 0.9701419 -0.02055513
vn -0.2425457 0.9700907 -0.009779593
vn -0.2386426 0.9701423 -0.04328569
vn -0.2327115 0.9701738 -0.06788411
vn -0.2238686 0.970184 -0.0928757
vn -0.2187956 0.9700794 -0.1052354
vn 1.357348E-05 1 -2.850494E-05
vn -0.4807288 0.006592757 0.8768446
vn -0.4793694 0.0002032812 0.8775886
vn -0.47801 -0.006186195 0.8783326
vn 0.8744841 -0.2421897 0.4202639
vn 0.8744872 -0.2425328 0.4200593
vn 0.8744903 -0.242876 0.4198547
vn -0.4779365 0.01260036 0.8783041
vn -0.4733752 0.00876266 0.8807937
vn -0.4688139 0.00492496 0.8832833
vn -0.4793327 -0.00637174 0.8776101
vn -0.4735619 -0.00801883 0.8806982
vn -0.4677911 -0.009665919 0.8837862
vn 0.9152862 -0.2421939 0.3218592
vn -0.8742495 -0.2428602 -0.4203649
vn -0.8742151 -0.2425171 -0.4206342
vn -0.8741807 -0.2421741 -0.4209035
vn -0.962107 -0.2422595 -0.125142
vn -0.9447402 -0.2422034 -0.2209152
vn -0.9153084 -0.2421809 -0.321806
vn -0.9694089 -0.2423229 -0.03906301
vn -0.9693621 -0.2425339 -0.0389133
vn 0.002370362 -0.009481451 -0.9999523
vn 0.006280559 -0.006593769 -0.9999467
vn 0.01019076 -0.003706087 -0.9999412
vn 0 -0.004960953 -0.9999877
vn 0.001172139 -0.0001280855 -0.9999869
vn 0.002344278 0.004704782 -0.9999862
vn 0.9446779 -0.2422384 0.2211428
vn 0.001211074 0.00484429 -0.9999875
vn 0.006186693 0.006096599 -0.9999491
vn 0.01116231 0.007348907 -0.9999107
vn 0.9692984 -0.2427236 0.03931803
vn 0.9693943 -0.2423023 0.03955289
vn 0.9620595 -0.2423 0.1254281

usemtl ProBuilderDefault
f 4/4/2 3/3/2 2/2/1 1/1/1
f 1/8/1 2/7/1 6/6/3 5/5/3
f 5/12/3 6/11/3 8/10/4 7/9/4
f 7/16/4 8/15/4 10/14/5 9/13/5
f 9/20/5 10/19/5 12/18/7 11/17/6
f 16/24/9 15/23/9 14/22/8 13/21/8
f 13/28/8 14/27/8 18/26/10 17/25/10
f 17/32/10 18/31/10 20/30/11 19/29/11
f 19/36/11 20/35/11 22/34/12 21/33/12
f 21/40/12 22/39/12 24/38/13 23/37/13
f 11/44/14 16/43/14 13/42/14 9/41/14
f 9/41/14 13/42/14 17/46/14 7/45/14
f 7/45/14 17/46/14 19/48/14 5/47/14
f 5/47/14 19/48/14 21/50/14 1/49/14
f 1/49/14 21/50/14 23/52/14 4/51/14
f 4/55/16 23/56/17 26/54/16 25/53/15
f 2/59/19 3/60/20 28/58/19 27/57/18
f 3/63/22 4/64/23 25/62/22 28/61/21
f 23/67/25 24/68/26 29/66/25 26/65/24
f 6/71/27 2/72/27 27/70/27 30/69/27
f 24/75/29 22/76/30 31/74/29 29/73/28
f 18/79/31 14/80/31 33/78/31 32/77/31
f 20/83/32 18/84/32 32/82/32 34/81/32
f 22/87/33 20/88/33 34/86/33 31/85/33
f 14/91/35 15/92/35 35/90/35 33/89/34
f 15/95/37 16/96/38 36/94/37 35/93/36
f 16/99/40 11/100/41 37/98/40 36/97/39
f 8/103/42 6/104/42 30/102/42 38/101/42
f 11/107/44 12/108/45 39/106/44 37/105/43
f 12/111/46 10/112/47 40/110/46 39/109/46
f 10/115/48 8/116/48 38/114/48 40/113/48

